<?xml version="1.0" encoding="utf-8"?>
<!-- Generator: Adobe Illustrator 22.0.0, SVG Export Plug-In . SVG Version: 6.00 Build 0)  -->
<svg version="1.1" id="Layer_1" xmlns="http://www.w3.org/2000/svg" xmlns:xlink="http://www.w3.org/1999/xlink" x="0px" y="0px"
	 viewBox="0 0 32 20" style="enable-background:new 0 0 32 20;" xml:space="preserve">
<style type="text/css">
	.st0{fill:#1976D2;}
	.st1{fill:#FFFFFF;}
</style>
<g id="surface1">
	<path class="st0" d="M32,17.3c0,1.5-1.2,2.7-2.7,2.7H2.7C1.2,20,0,18.8,0,17.3V2.7C0,1.2,1.2,0,2.7,0h26.7C30.8,0,32,1.2,32,2.7
		V17.3z"/>
	<path class="st1" d="M14.8,7.3l-1.4,3.1L12,7.3h-1.8v4.5l-2-4.5H6.7l-2,4.7h1.2l0.4-1h2.3l0.5,1h2.3V8.5l1.5,3.5h1l1.6-3.4V12h1.1
		V7.3H14.8z M6.8,9.9l0.7-1.6l0.7,1.6H6.8z"/>
	<path class="st1" d="M25.3,9.6l2.1-2.3h-1.5l-1.3,1.4l-1.3-1.5h-4.6V12h4.4l1.4-1.5l1.4,1.6h1.5L25.3,9.6z M22.5,11h-2.7v-0.9h2.6
		V9.2h-2.6V8.3l2.8,0l1.1,1.3L22.5,11z"/>
</g>
</svg>
