<?xml version="1.0" encoding="utf-8"?>
<!-- Generator: Adobe Illustrator 22.0.0, SVG Export Plug-In . SVG Version: 6.00 Build 0)  -->
<svg version="1.1" id="Layer_1" xmlns="http://www.w3.org/2000/svg" xmlns:xlink="http://www.w3.org/1999/xlink" x="0px" y="0px"
	 viewBox="0 0 32 20" style="enable-background:new 0 0 32 20;" xml:space="preserve">
<style type="text/css">
	.st0{fill:#E1E7EA;}
	.st1{fill:#FF6D00;}
</style>
<g id="surface1">
	<path class="st0" d="M32,17.3c0,1.5-1.2,2.7-2.7,2.7H2.7C1.2,20,0,18.8,0,17.3V2.7C0,1.2,1.2,0,2.7,0h26.7C30.8,0,32,1.2,32,2.7
		V17.3z"/>
	<path class="st1" d="M32,17.3c0,1.5-1.2,2.7-2.7,2.7H12.7c0,0,15.7-2.5,19.3-10V17.3z"/>
	<circle class="st1" cx="16.7" cy="10" r="2"/>
	<path d="M7.5,8h0.7v4H7.5V8z M11.5,10c0,1.1,0.9,2,2,2c0.3,0,0.6-0.1,0.9-0.2v-0.9c-0.3,0.3-0.5,0.4-0.9,0.4
		c-0.7,0-1.3-0.5-1.3-1.3c0-0.7,0.5-1.3,1.3-1.3c0.3,0,0.6,0.1,0.9,0.4V8.2c-0.3-0.1-0.6-0.3-0.9-0.3C12.3,8,11.5,8.9,11.5,10z
		 M20.4,10.6L19.3,8h-0.8l1.7,4h0.4l1.7-4h-0.8L20.4,10.6z M22.6,12h2.1v-0.7h-1.4v-1.1h1.3V9.6h-1.3V8.7h1.4V8h-2.1V12z M27.7,9.2
		c0-0.7-0.5-1.2-1.3-1.2h-1.1v4h0.7v-1.6H26l1.1,1.6H28l-1.2-1.7C27.3,10.2,27.7,9.8,27.7,9.2z M26.1,9.9h-0.2V8.7h0.2
		c0.5,0,0.7,0.2,0.7,0.6C26.9,9.6,26.7,9.9,26.1,9.9z M5.1,8H4v4h1.1c1.7,0,2.1-1.4,2.1-2C7.2,8.8,6.3,8,5.1,8z M4.9,11.3H4.7V8.7H5
		c1,0,1.4,0.7,1.4,1.3C6.4,10.3,6.3,11.3,4.9,11.3z M10.2,9.5C9.7,9.3,9.6,9.3,9.6,9.1c0-0.3,0.3-0.4,0.5-0.4c0.2,0,0.4,0.1,0.6,0.3
		l0.4-0.5C10.8,8.1,10.5,8,10,8C9.3,8,8.8,8.5,8.8,9.1c0,0.5,0.3,0.8,0.9,1.1c0.4,0.1,0.7,0.3,0.7,0.6c0,0.3-0.3,0.5-0.6,0.5
		s-0.7-0.2-0.8-0.5l-0.5,0.5C8.9,11.8,9.3,12,9.9,12c0.8,0,1.3-0.5,1.3-1.3C11.3,10.1,11,9.9,10.2,9.5z"/>
</g>
</svg>
