<?xml version="1.0" encoding="utf-8"?>
<!-- Generator: Adobe Illustrator 22.0.0, SVG Export Plug-In . SVG Version: 6.00 Build 0)  -->
<svg version="1.1" id="Layer_1" xmlns="http://www.w3.org/2000/svg" xmlns:xlink="http://www.w3.org/1999/xlink" x="0px" y="0px"
	 viewBox="0 0 32 20" style="enable-background:new 0 0 32 20;" xml:space="preserve">
<style type="text/css">
	.st0{fill:#3F51B5;}
	.st1{fill:#FFC107;}
	.st2{fill:#FF3D00;}
</style>
<g id="surface1">
	<path class="st0" d="M32,17.3c0,1.5-1.2,2.7-2.7,2.7H2.7C1.2,20,0,18.8,0,17.3V2.7C0,1.2,1.2,0,2.7,0h26.7C30.8,0,32,1.2,32,2.7
		V17.3z"/>
	<path class="st1" d="M26.7,10c0,3.7-3,6.7-6.7,6.7s-6.7-3-6.7-6.7s3-6.7,6.7-6.7S26.7,6.3,26.7,10z"/>
	<path class="st2" d="M14.7,14c-0.3-0.4-0.6-0.9-0.8-1.3h3.5c0.2-0.4,0.3-0.9,0.4-1.3h-4.4c-0.1-0.4-0.1-0.9-0.1-1.3H18
		c0-0.5,0-0.9-0.1-1.3h-4.4c0.1-0.5,0.2-0.9,0.4-1.3h3.5C17.2,6.9,17,6.4,16.7,6h-2c0.3-0.4,0.6-0.7,1-1.1c-1.2-1-2.7-1.6-4.3-1.6
		c-3.7,0-6.7,3-6.7,6.7s3,6.7,6.7,6.7c2.2,0,4.1-1,5.3-2.7H14.7z"/>
</g>
</svg>
