<?xml version="1.0" encoding="utf-8"?>
<!-- Generator: Adobe Illustrator 22.0.0, SVG Export Plug-In . SVG Version: 6.00 Build 0)  -->
<svg version="1.1" id="Layer_1" xmlns="http://www.w3.org/2000/svg" xmlns:xlink="http://www.w3.org/1999/xlink" x="0px" y="0px"
	 viewBox="0 0 32 20" style="enable-background:new 0 0 32 20;" xml:space="preserve">
<style type="text/css">
	.st0{fill:#1565C0;}
	.st1{fill:#FFFFFF;}
	.st2{fill:#FFC107;}
</style>
<g id="surface1">
	<path class="st0" d="M32,17.3c0,1.5-1.2,2.7-2.7,2.7H2.7C1.2,20,0,18.8,0,17.3V2.7C0,1.2,1.2,0,2.7,0h26.7C30.8,0,32,1.2,32,2.7
		V17.3z"/>
	<path class="st1" d="M10.1,6.7l-1.8,5.2c0,0-0.4-2.2-0.5-2.5c-1-2.3-2.5-2.1-2.5-2.1L7.2,14v0h2.1l2.9-7.3H10.1z"/>
	<path class="st1" d="M11.8,14h1.9l1.2-7.3h-1.9L11.8,14z"/>
	<path class="st1" d="M25.3,6.7h-2L20.2,14h1.9l0.4-1h2.4l0.2,1h1.7L25.3,6.7z M23,11.6l1-2.8l0.5,2.8H23z"/>
	<path class="st1" d="M17.6,8.8c0-0.4,0.3-0.7,1.3-0.7c0.6,0,1.3,0.5,1.3,0.5L20.5,7c0,0-0.9-0.3-1.8-0.3c-2,0-3.1,1-3.1,2.2
		c0,2.2,2.7,1.9,2.7,3c0,0.2-0.2,0.6-1.3,0.6s-1.8-0.4-1.8-0.4l-0.3,1.5c0,0,0.7,0.4,2.1,0.4c1.4,0,3.3-1,3.3-2.5
		C20.2,9.7,17.6,9.6,17.6,8.8z"/>
	<path class="st2" d="M8.1,10.6L7.5,7.5c0,0-0.3-0.7-1-0.7s-3,0-3,0S7.3,7.9,8.1,10.6z"/>
</g>
</svg>
